<svg width="40" height="40" viewBox="0 0 40 40" fill="none" xmlns="http://www.w3.org/2000/svg">
<path fill-rule="evenodd" clip-rule="evenodd" d="M14.737 4.93435C14.9183 2.20724 17.1879 0.0513916 19.9609 0.0513916C22.7109 0.0513916 24.9658 2.17164 25.1799 4.86662C22.0951 3.81532 18.6608 3.69826 15.3114 4.74328C15.118 4.80364 14.9265 4.86736 14.737 4.93435ZM4.98879 14.7823C2.21184 14.9111 0 17.2033 0 20.0121C0 22.8371 2.23737 25.1395 5.03678 25.244C4.97226 25.0608 4.91079 24.8756 4.85245 24.6887C3.80314 21.3256 3.92547 17.8768 4.98879 14.7823ZM14.7297 34.9548C14.8438 37.7455 17.1422 39.9729 19.9609 39.9729C22.7575 39.9729 25.042 37.7802 25.189 35.0202C25.0595 35.0642 24.9291 35.1067 24.7978 35.1477C21.376 36.2153 17.8656 36.07 14.7297 34.9548ZM35.0771 25.2334C37.786 25.0334 39.9218 22.7722 39.9218 20.0121C39.9218 17.2679 37.8105 15.0168 35.1237 14.7946C35.1697 14.9295 35.2141 15.0654 35.2568 15.2023C36.3203 18.6106 36.1803 22.1069 35.0771 25.2334Z" fill="#C3ED6B"/>
<rect x="2.14404" y="9.59991" width="10.4712" height="10.4712" rx="5.2356" transform="rotate(-45 2.14404 9.59991)" fill="#C3ED6B"/>
<rect x="22.9688" y="30.4244" width="10.4712" height="10.4712" rx="5.2356" transform="rotate(-45 22.9688 30.4244)" fill="#C3ED6B"/>
<rect x="9.54834" y="37.8286" width="10.4712" height="10.4712" rx="5.2356" transform="rotate(-135 9.54834 37.8286)" fill="#C3ED6B"/>
<rect x="30.373" y="17.0042" width="10.4712" height="10.4712" rx="5.2356" transform="rotate(-135 30.373 17.0042)" fill="#C3ED6B"/>
</svg>
